<?xml version="1.0" standalone="no"?>
<!DOCTYPE svg PUBLIC "-//W3C//DTD SVG 20010904//EN"
 "http://www.w3.org/TR/2001/REC-SVG-20010904/DTD/svg10.dtd">
<svg version="1.0" xmlns="http://www.w3.org/2000/svg"
 width="320.000000pt" height="320.000000pt" viewBox="0 0 320.000000 320.000000"
 preserveAspectRatio="xMidYMid meet">
<metadata>
Created by potrace 1.11, written by Peter Selinger 2001-2013
</metadata>
<g transform="translate(0.000000,320.000000) scale(0.100000,-0.100000)"
fill="#000000" stroke="none">
<path d="M595 2593 c-240 -45 -412 -229 -417 -446 -1 -58 9 -115 24 -134 6 -7
8 -13 4 -13 -3 0 11 -30 31 -67 63 -117 90 -152 247 -308 67 -66 135 -138 152
-160 45 -57 94 -159 154 -320 99 -268 175 -380 313 -463 54 -33 170 -77 228
-87 146 -26 334 -28 454 -5 76 15 197 50 210 61 5 5 16 9 23 9 23 0 187 85
271 141 282 189 536 506 695 869 72 165 103 372 76 510 -32 170 -149 291 -314
324 -115 24 -200 -9 -332 -129 -217 -197 -339 -253 -564 -260 -187 -5 -334 62
-520 239 -54 52 -167 134 -218 160 -157 78 -359 109 -517 79z"/>
</g>
</svg>
